<?xml version="1.0" standalone="no"?>
<!DOCTYPE svg PUBLIC "-//W3C//DTD SVG 20010904//EN"
 "http://www.w3.org/TR/2001/REC-SVG-20010904/DTD/svg10.dtd">
<svg version="1.0" xmlns="http://www.w3.org/2000/svg"
 width="564.000000pt" height="244.000000pt" viewBox="0 0 564.000000 244.000000"
 preserveAspectRatio="xMidYMid meet">

<g transform="translate(0.000000,244.000000) scale(0.100000,-0.100000)"
fill="#000000" stroke="none">
<path d="M1455 1896 c-64 -20 -99 -42 -138 -85 -57 -63 -71 -143 -38 -216 28
-63 101 -119 255 -196 192 -97 246 -150 246 -244 0 -119 -81 -186 -225 -188
-142 -2 -191 39 -237 193 -11 38 -17 45 -38 45 -34 0 -37 -28 -15 -132 l17
-81 82 -33 c73 -30 91 -33 186 -33 81 0 121 5 178 22 165 51 237 198 166 340
-31 63 -88 109 -194 159 -195 92 -242 117 -269 149 -77 87 -56 220 42 264 78
36 181 22 243 -32 42 -37 60 -71 75 -138 10 -47 13 -51 37 -48 25 3 27 7 26
48 0 25 -4 71 -8 102 -7 52 -10 59 -34 64 -15 3 -62 17 -105 30 -87 27 -186
31 -252 10z"/>
<path d="M4755 1898 c-116 -22 -240 -109 -300 -211 -65 -113 -89 -265 -61
-397 50 -233 211 -360 456 -360 191 0 338 84 408 233 39 82 52 147 52 266 0
152 -41 263 -131 353 -101 101 -267 146 -424 116z m220 -56 c152 -78 231 -333
180 -575 -27 -130 -80 -216 -162 -264 -60 -35 -176 -44 -251 -19 -133 44 -213
205 -214 426 -1 210 92 396 223 443 60 23 170 17 224 -11z"/>
<path d="M673 1893 c-317 -3 -333 -4 -333 -22 0 -15 10 -19 55 -23 31 -3 61
-10 68 -17 9 -9 12 -112 12 -416 0 -456 4 -433 -77 -444 -27 -4 -44 -12 -46
-21 -2 -13 45 -15 377 -15 209 0 382 3 386 7 4 4 13 55 19 114 11 93 11 107
-3 112 -8 3 -16 1 -19 -4 -43 -108 -86 -153 -166 -175 -46 -13 -291 -18 -318
-7 -16 7 -18 26 -18 203 l0 196 38 16 c30 12 68 15 197 12 l159 -4 10 33 c5
18 6 35 3 38 -3 4 -43 1 -89 -5 -46 -5 -136 -13 -200 -17 l-118 -6 0 201 0
201 165 0 c177 0 211 -7 252 -51 12 -14 29 -41 37 -61 19 -44 34 -55 51 -37
11 12 10 30 -3 107 l-16 92 -46 -2 c-25 -2 -195 -4 -377 -5z"/>
<path d="M1996 1880 c-3 -8 -6 -66 -8 -129 -2 -82 0 -115 9 -118 12 -4 18 14
43 124 8 37 21 60 42 78 27 23 37 25 132 25 72 0 108 -4 122 -14 18 -14 19
-30 19 -429 0 -336 -3 -417 -14 -430 -9 -12 -29 -17 -62 -17 -41 0 -49 -3 -49
-18 0 -17 14 -18 195 -18 181 0 195 1 195 18 0 15 -8 18 -49 18 -27 0 -53 6
-59 13 -7 8 -13 160 -17 422 -6 359 -5 412 8 430 13 17 30 21 104 23 155 6
182 -12 214 -143 10 -43 21 -80 24 -83 17 -17 23 26 17 137 l-7 124 -428 1
c-372 1 -428 -1 -431 -14z"/>
<path d="M2968 1894 c-21 -21 -6 -34 40 -34 26 0 53 -5 60 -12 9 -9 12 -119
12 -435 0 -477 6 -443 -80 -443 -34 0 -41 -3 -38 -17 2 -10 11 -18 21 -17 9 0
94 1 187 2 144 2 170 4 170 17 0 11 -12 15 -44 15 -83 0 -76 -39 -76 441 0
483 -6 449 79 449 30 0 41 4 41 15 0 13 -22 15 -139 15 -76 0 -158 3 -182 6
-24 3 -47 2 -51 -2z"/>
<path d="M3454 1889 c-11 -18 8 -28 61 -31 43 -3 50 -6 56 -28 4 -14 7 -205 8
-426 1 -306 -2 -404 -11 -417 -8 -10 -31 -17 -63 -19 -36 -2 -51 -7 -53 -19
-3 -14 36 -15 395 -11 219 2 399 5 400 6 2 1 32 229 36 271 4 42 -27 18 -47
-36 -48 -130 -111 -182 -236 -199 -119 -15 -242 -13 -268 6 l-22 15 0 418 c0
311 3 420 12 429 7 7 38 12 69 12 40 0 58 4 62 14 3 8 3 17 0 20 -12 11 -391
7 -399 -5z"/>
<path d="M1655 671 c-32 -14 -47 -37 -43 -68 3 -29 3 -29 124 -62 61 -16 69
-56 18 -80 -37 -17 -85 -13 -121 9 -39 23 -45 8 -7 -17 34 -22 114 -22 148 0
18 12 26 26 26 47 0 35 -26 55 -85 64 -62 11 -74 16 -85 36 -25 47 75 81 128
44 29 -20 38 -13 13 10 -23 20 -87 30 -116 17z"/>
<path d="M1928 560 c-31 -66 -52 -120 -47 -120 5 0 17 16 26 35 l17 36 70 -3
c67 -3 71 -4 86 -33 20 -40 19 -39 25 -33 8 8 -99 238 -110 238 -6 0 -36 -54
-67 -120z m122 -27 c0 -9 -18 -13 -60 -13 -33 0 -60 2 -60 5 0 2 15 34 33 71
l32 66 27 -59 c15 -32 27 -64 28 -70z"/>
<path d="M2245 671 c-32 -14 -47 -37 -43 -68 3 -29 3 -29 124 -62 61 -16 69
-56 18 -80 -37 -17 -85 -13 -121 9 -39 23 -45 8 -7 -17 34 -22 114 -22 148 0
18 12 26 26 26 47 0 36 -27 55 -90 65 -47 7 -90 29 -90 45 0 6 9 19 20 30 25
25 86 27 118 4 29 -20 38 -13 13 10 -23 20 -87 30 -116 17z"/>
<path d="M2460 670 c0 -5 20 -10 45 -10 l45 0 2 -112 2 -113 5 110 6 110 48 3
c26 2 45 7 42 13 -8 12 -195 12 -195 -1z"/>
<path d="M2748 674 c-12 -11 -10 -234 2 -234 6 0 10 20 10 45 l0 45 49 0 c47
0 51 -2 82 -45 18 -25 36 -45 41 -45 11 0 4 13 -30 59 -17 23 -22 36 -14 39
45 15 57 85 21 118 -14 13 -40 20 -87 22 -37 2 -70 0 -74 -4z m152 -34 c46
-46 8 -90 -80 -90 l-60 0 0 55 0 55 60 0 c47 0 64 -4 80 -20z"/>
<path d="M3050 560 l0 -120 88 2 87 2 -80 5 -80 6 -3 48 -3 47 70 0 c41 0 71
4 71 10 0 6 -30 10 -70 10 l-70 0 0 45 0 45 80 0 c47 0 80 4 80 10 0 6 -35 10
-85 10 l-85 0 0 -120z"/>
<path d="M3330 561 c0 -74 4 -121 10 -121 6 0 10 20 10 45 l0 45 48 0 c46 0
50 -2 81 -45 18 -25 37 -45 42 -45 6 0 -4 20 -22 45 l-32 45 26 21 c32 25 36
66 8 100 -16 20 -30 24 -95 27 l-76 4 0 -121z m152 82 c22 -20 23 -51 1 -75
-12 -13 -31 -18 -75 -18 l-58 0 0 55 0 55 57 0 c38 0 62 -5 75 -17z"/>
<path d="M3630 670 c0 -5 11 -10 25 -10 l25 0 0 -104 0 -105 -27 -4 c-16 -2 4
-4 42 -4 44 -1 59 2 40 6 l-30 6 -3 103 -3 102 31 0 c16 0 30 5 30 10 0 6 -28
10 -65 10 -37 0 -65 -4 -65 -10z"/>
<path d="M3953 668 c-6 -7 -31 -60 -57 -117 -48 -104 -56 -142 -18 -76 21 35
22 35 90 35 l68 0 18 -36 c9 -20 20 -34 23 -30 7 7 -97 236 -108 236 -3 0 -11
-6 -16 -12z m64 -115 l13 -33 -64 0 -65 0 31 71 32 71 19 -39 c11 -21 26 -53
34 -70z"/>
</g>
</svg>
